<mxfile host="65bd71144e">
    <diagram id="VrP0YWDYMth0J7mWB3k0" name="Page-1">
        <mxGraphModel dx="563" dy="458" grid="1" gridSize="10" guides="1" tooltips="1" connect="1" arrows="1" fold="1" page="1" pageScale="1" pageWidth="850" pageHeight="1100" math="0" shadow="0">
            <root>
                <mxCell id="0"/>
                <mxCell id="1" parent="0"/>
                <mxCell id="Ohhv1TDi-_pLUf5j1PH2-64" value="Kubernetes" style="points=[[0,0],[0.25,0],[0.5,0],[0.75,0],[1,0],[1,0.25],[1,0.5],[1,0.75],[1,1],[0.75,1],[0.5,1],[0.25,1],[0,1],[0,0.75],[0,0.5],[0,0.25]];outlineConnect=0;gradientColor=none;html=1;whiteSpace=wrap;fontSize=12;fontStyle=0;shape=mxgraph.aws4.group;grIcon=mxgraph.aws4.group_vpc;strokeColor=#248814;fillColor=none;verticalAlign=top;align=left;spacingLeft=30;fontColor=#AAB7B8;dashed=0;" parent="1" vertex="1">
                    <mxGeometry x="150" y="96" width="450" height="404" as="geometry"/>
                </mxCell>
                <mxCell id="Ohhv1TDi-_pLUf5j1PH2-13" value="" style="group" parent="1" vertex="1" connectable="0">
                    <mxGeometry x="213" y="298" width="65" height="80" as="geometry"/>
                </mxCell>
                <mxCell id="Ohhv1TDi-_pLUf5j1PH2-40" value="" style="sketch=0;html=1;dashed=0;whitespace=wrap;fillColor=#2875E2;strokeColor=#ffffff;points=[[0.005,0.63,0],[0.1,0.2,0],[0.9,0.2,0],[0.5,0,0],[0.995,0.63,0],[0.72,0.99,0],[0.5,1,0],[0.28,0.99,0]];shape=mxgraph.kubernetes.icon;prIcon=pod" parent="Ohhv1TDi-_pLUf5j1PH2-13" vertex="1">
                    <mxGeometry x="-13" y="-8" width="70" height="62" as="geometry"/>
                </mxCell>
                <mxCell id="Ohhv1TDi-_pLUf5j1PH2-5" value="" style="sketch=0;html=1;dashed=0;whitespace=wrap;fillColor=#2875E2;strokeColor=#ffffff;points=[[0.005,0.63,0],[0.1,0.2,0],[0.9,0.2,0],[0.5,0,0],[0.995,0.63,0],[0.72,0.99,0],[0.5,1,0],[0.28,0.99,0]];shape=mxgraph.kubernetes.icon;prIcon=pod" parent="Ohhv1TDi-_pLUf5j1PH2-13" vertex="1">
                    <mxGeometry width="60" height="60" as="geometry"/>
                </mxCell>
                <mxCell id="Ohhv1TDi-_pLUf5j1PH2-12" value="API" style="text;html=1;strokeColor=none;fillColor=none;align=center;verticalAlign=middle;whiteSpace=wrap;rounded=0;" parent="Ohhv1TDi-_pLUf5j1PH2-13" vertex="1">
                    <mxGeometry y="60" width="60" height="20" as="geometry"/>
                </mxCell>
                <mxCell id="Ohhv1TDi-_pLUf5j1PH2-45" style="edgeStyle=orthogonalEdgeStyle;rounded=0;orthogonalLoop=1;jettySize=auto;html=1;startArrow=none;startFill=0;entryX=0.59;entryY=-0.011;entryDx=0;entryDy=0;entryPerimeter=0;" parent="1" source="Ohhv1TDi-_pLUf5j1PH2-2" target="Ohhv1TDi-_pLUf5j1PH2-42" edge="1">
                    <mxGeometry relative="1" as="geometry">
                        <mxPoint x="593" y="168" as="targetPoint"/>
                    </mxGeometry>
                </mxCell>
                <mxCell id="Ohhv1TDi-_pLUf5j1PH2-2" value="" style="shape=image;verticalLabelPosition=bottom;labelBackgroundColor=#ffffff;verticalAlign=top;aspect=fixed;imageAspect=0;image=https://cdn.icon-icons.com/icons2/2699/PNG/512/apache_kafka_vertical_logo_icon_169585.png;" parent="1" vertex="1">
                    <mxGeometry x="391.31" y="100" width="84.19" height="88" as="geometry"/>
                </mxCell>
                <mxCell id="Ohhv1TDi-_pLUf5j1PH2-11" value="" style="group" parent="1" vertex="1" connectable="0">
                    <mxGeometry x="399.96" y="398" width="75.53999999999996" height="100" as="geometry"/>
                </mxCell>
                <mxCell id="Ohhv1TDi-_pLUf5j1PH2-3" value="" style="shape=image;verticalLabelPosition=bottom;labelBackgroundColor=#ffffff;verticalAlign=top;aspect=fixed;imageAspect=0;image=https://cdn.freebiesupply.com/logos/large/2x/rabbitmq-logo-png-transparent.png;" parent="Ohhv1TDi-_pLUf5j1PH2-11" vertex="1">
                    <mxGeometry width="75.54" height="80" as="geometry"/>
                </mxCell>
                <mxCell id="Ohhv1TDi-_pLUf5j1PH2-10" value="RabbitMQ" style="text;html=1;strokeColor=none;fillColor=none;align=center;verticalAlign=middle;whiteSpace=wrap;rounded=0;" parent="Ohhv1TDi-_pLUf5j1PH2-11" vertex="1">
                    <mxGeometry x="8" y="80" width="60" height="20" as="geometry"/>
                </mxCell>
                <mxCell id="Ohhv1TDi-_pLUf5j1PH2-15" value="" style="group" parent="1" vertex="1" connectable="0">
                    <mxGeometry x="283" y="188" width="82.5" height="100" as="geometry"/>
                </mxCell>
                <mxCell id="Ohhv1TDi-_pLUf5j1PH2-9" value="" style="group" parent="Ohhv1TDi-_pLUf5j1PH2-15" vertex="1" connectable="0">
                    <mxGeometry width="82.5" height="100" as="geometry"/>
                </mxCell>
                <mxCell id="Ohhv1TDi-_pLUf5j1PH2-1" value="" style="sketch=0;html=1;dashed=0;whitespace=wrap;fillColor=#2875E2;strokeColor=#ffffff;points=[[0.005,0.63,0],[0.1,0.2,0],[0.9,0.2,0],[0.5,0,0],[0.995,0.63,0],[0.72,0.99,0],[0.5,1,0],[0.28,0.99,0]];shape=mxgraph.kubernetes.icon;prIcon=pod" parent="Ohhv1TDi-_pLUf5j1PH2-9" vertex="1">
                    <mxGeometry y="10" width="60" height="60" as="geometry"/>
                </mxCell>
                <mxCell id="Ohhv1TDi-_pLUf5j1PH2-7" value="" style="sketch=0;html=1;dashed=0;whitespace=wrap;fillColor=#2875E2;strokeColor=#ffffff;points=[[0.005,0.63,0],[0.1,0.2,0],[0.9,0.2,0],[0.5,0,0],[0.995,0.63,0],[0.72,0.99,0],[0.5,1,0],[0.28,0.99,0]];shape=mxgraph.kubernetes.icon;prIcon=pod" parent="Ohhv1TDi-_pLUf5j1PH2-9" vertex="1">
                    <mxGeometry x="8" y="18" width="60" height="60" as="geometry"/>
                </mxCell>
                <mxCell id="Ohhv1TDi-_pLUf5j1PH2-4" value="" style="shape=image;verticalLabelPosition=bottom;labelBackgroundColor=#ffffff;verticalAlign=top;aspect=fixed;imageAspect=0;image=https://seeklogo.com/images/N/neo4j-logo-6863235D8A-seeklogo.com.png;" parent="Ohhv1TDi-_pLUf5j1PH2-9" vertex="1">
                    <mxGeometry x="40" width="33.56" height="38" as="geometry"/>
                </mxCell>
                <mxCell id="Ohhv1TDi-_pLUf5j1PH2-8" value="Neo4J" style="text;html=1;strokeColor=none;fillColor=none;align=center;verticalAlign=middle;whiteSpace=wrap;rounded=0;" parent="Ohhv1TDi-_pLUf5j1PH2-9" vertex="1">
                    <mxGeometry x="8" y="79" width="60" height="22" as="geometry"/>
                </mxCell>
                <mxCell id="Ohhv1TDi-_pLUf5j1PH2-14" value="" style="shape=image;verticalLabelPosition=bottom;labelBackgroundColor=#ffffff;verticalAlign=top;aspect=fixed;imageAspect=0;image=https://s.appbrain.com/static/202107291604966/blob/sdk-logos/grpc.png;strokeWidth=1;imageBorder=none;" parent="Ohhv1TDi-_pLUf5j1PH2-15" vertex="1">
                    <mxGeometry y="62.80000000000001" width="72.5" height="23.2" as="geometry"/>
                </mxCell>
                <mxCell id="Ohhv1TDi-_pLUf5j1PH2-16" value="" style="group" parent="1" vertex="1" connectable="0">
                    <mxGeometry x="393" y="294" width="82.50000000000001" height="100" as="geometry"/>
                </mxCell>
                <mxCell id="Ohhv1TDi-_pLUf5j1PH2-17" value="" style="group" parent="Ohhv1TDi-_pLUf5j1PH2-16" vertex="1" connectable="0">
                    <mxGeometry width="82.50000000000001" height="100" as="geometry"/>
                </mxCell>
                <mxCell id="Ohhv1TDi-_pLUf5j1PH2-18" value="" style="sketch=0;html=1;dashed=0;whitespace=wrap;fillColor=#2875E2;strokeColor=#ffffff;points=[[0.005,0.63,0],[0.1,0.2,0],[0.9,0.2,0],[0.5,0,0],[0.995,0.63,0],[0.72,0.99,0],[0.5,1,0],[0.28,0.99,0]];shape=mxgraph.kubernetes.icon;prIcon=pod" parent="Ohhv1TDi-_pLUf5j1PH2-17" vertex="1">
                    <mxGeometry y="10" width="60" height="60" as="geometry"/>
                </mxCell>
                <mxCell id="Ohhv1TDi-_pLUf5j1PH2-19" value="" style="sketch=0;html=1;dashed=0;whitespace=wrap;fillColor=#2875E2;strokeColor=#ffffff;points=[[0.005,0.63,0],[0.1,0.2,0],[0.9,0.2,0],[0.5,0,0],[0.995,0.63,0],[0.72,0.99,0],[0.5,1,0],[0.28,0.99,0]];shape=mxgraph.kubernetes.icon;prIcon=pod" parent="Ohhv1TDi-_pLUf5j1PH2-17" vertex="1">
                    <mxGeometry x="8" y="18" width="60" height="60" as="geometry"/>
                </mxCell>
                <mxCell id="Ohhv1TDi-_pLUf5j1PH2-21" value="Postgres" style="text;html=1;strokeColor=none;fillColor=none;align=center;verticalAlign=middle;whiteSpace=wrap;rounded=0;" parent="Ohhv1TDi-_pLUf5j1PH2-17" vertex="1">
                    <mxGeometry x="8" y="79" width="60" height="22" as="geometry"/>
                </mxCell>
                <mxCell id="Ohhv1TDi-_pLUf5j1PH2-24" value="" style="shape=image;verticalLabelPosition=bottom;labelBackgroundColor=#ffffff;verticalAlign=top;aspect=fixed;imageAspect=0;image=https://upload.wikimedia.org/wikipedia/commons/thumb/2/29/Postgresql_elephant.svg/1200px-Postgresql_elephant.svg.png;" parent="Ohhv1TDi-_pLUf5j1PH2-17" vertex="1">
                    <mxGeometry x="41.670000000000016" y="3" width="36.83" height="38" as="geometry"/>
                </mxCell>
                <mxCell id="Ohhv1TDi-_pLUf5j1PH2-22" value="" style="shape=image;verticalLabelPosition=bottom;labelBackgroundColor=#ffffff;verticalAlign=top;aspect=fixed;imageAspect=0;image=https://s.appbrain.com/static/202107291604966/blob/sdk-logos/grpc.png;strokeWidth=1;imageBorder=none;" parent="Ohhv1TDi-_pLUf5j1PH2-16" vertex="1">
                    <mxGeometry y="62.80000000000001" width="72.5" height="23.2" as="geometry"/>
                </mxCell>
                <mxCell id="Ohhv1TDi-_pLUf5j1PH2-26" value="" style="group" parent="1" vertex="1" connectable="0">
                    <mxGeometry x="393" y="188" width="82.85" height="100" as="geometry"/>
                </mxCell>
                <mxCell id="Ohhv1TDi-_pLUf5j1PH2-27" value="" style="group" parent="Ohhv1TDi-_pLUf5j1PH2-26" vertex="1" connectable="0">
                    <mxGeometry width="82.85" height="100" as="geometry"/>
                </mxCell>
                <mxCell id="Ohhv1TDi-_pLUf5j1PH2-28" value="" style="sketch=0;html=1;dashed=0;whitespace=wrap;fillColor=#2875E2;strokeColor=#ffffff;points=[[0.005,0.63,0],[0.1,0.2,0],[0.9,0.2,0],[0.5,0,0],[0.995,0.63,0],[0.72,0.99,0],[0.5,1,0],[0.28,0.99,0]];shape=mxgraph.kubernetes.icon;prIcon=pod" parent="Ohhv1TDi-_pLUf5j1PH2-27" vertex="1">
                    <mxGeometry y="10" width="60" height="60" as="geometry"/>
                </mxCell>
                <mxCell id="Ohhv1TDi-_pLUf5j1PH2-29" value="" style="sketch=0;html=1;dashed=0;whitespace=wrap;fillColor=#2875E2;strokeColor=#ffffff;points=[[0.005,0.63,0],[0.1,0.2,0],[0.9,0.2,0],[0.5,0,0],[0.995,0.63,0],[0.72,0.99,0],[0.5,1,0],[0.28,0.99,0]];shape=mxgraph.kubernetes.icon;prIcon=pod" parent="Ohhv1TDi-_pLUf5j1PH2-27" vertex="1">
                    <mxGeometry x="8" y="18" width="60" height="60" as="geometry"/>
                </mxCell>
                <mxCell id="Ohhv1TDi-_pLUf5j1PH2-30" value="Redis" style="text;html=1;strokeColor=none;fillColor=none;align=center;verticalAlign=middle;whiteSpace=wrap;rounded=0;" parent="Ohhv1TDi-_pLUf5j1PH2-27" vertex="1">
                    <mxGeometry x="8" y="79" width="60" height="22" as="geometry"/>
                </mxCell>
                <mxCell id="Ohhv1TDi-_pLUf5j1PH2-33" value="" style="sketch=0;aspect=fixed;html=1;points=[];align=center;image;fontSize=12;image=img/lib/mscae/Cache_Redis_Product.svg;strokeWidth=1;" parent="Ohhv1TDi-_pLUf5j1PH2-27" vertex="1">
                    <mxGeometry x="41" y="7" width="30.95" height="26" as="geometry"/>
                </mxCell>
                <mxCell id="Ohhv1TDi-_pLUf5j1PH2-32" value="" style="shape=image;verticalLabelPosition=bottom;labelBackgroundColor=#ffffff;verticalAlign=top;aspect=fixed;imageAspect=0;image=https://s.appbrain.com/static/202107291604966/blob/sdk-logos/grpc.png;strokeWidth=1;imageBorder=none;" parent="Ohhv1TDi-_pLUf5j1PH2-26" vertex="1">
                    <mxGeometry y="62.80000000000001" width="72.5" height="23.2" as="geometry"/>
                </mxCell>
                <mxCell id="Ohhv1TDi-_pLUf5j1PH2-41" value="" style="group" parent="1" vertex="1" connectable="0">
                    <mxGeometry x="520" y="208" width="65" height="80" as="geometry"/>
                </mxCell>
                <mxCell id="Ohhv1TDi-_pLUf5j1PH2-42" value="" style="sketch=0;html=1;dashed=0;whitespace=wrap;fillColor=#2875E2;strokeColor=#ffffff;points=[[0.005,0.63,0],[0.1,0.2,0],[0.9,0.2,0],[0.5,0,0],[0.995,0.63,0],[0.72,0.99,0],[0.5,1,0],[0.28,0.99,0]];shape=mxgraph.kubernetes.icon;prIcon=pod" parent="Ohhv1TDi-_pLUf5j1PH2-41" vertex="1">
                    <mxGeometry x="-13" y="-8" width="70" height="62" as="geometry"/>
                </mxCell>
                <mxCell id="Ohhv1TDi-_pLUf5j1PH2-43" value="" style="sketch=0;html=1;dashed=0;whitespace=wrap;fillColor=#2875E2;strokeColor=#ffffff;points=[[0.005,0.63,0],[0.1,0.2,0],[0.9,0.2,0],[0.5,0,0],[0.995,0.63,0],[0.72,0.99,0],[0.5,1,0],[0.28,0.99,0]];shape=mxgraph.kubernetes.icon;prIcon=pod" parent="Ohhv1TDi-_pLUf5j1PH2-41" vertex="1">
                    <mxGeometry width="60" height="60" as="geometry"/>
                </mxCell>
                <mxCell id="Ohhv1TDi-_pLUf5j1PH2-44" value="Consumers" style="text;html=1;strokeColor=none;fillColor=none;align=center;verticalAlign=middle;whiteSpace=wrap;rounded=0;" parent="Ohhv1TDi-_pLUf5j1PH2-41" vertex="1">
                    <mxGeometry y="60" width="60" height="20" as="geometry"/>
                </mxCell>
                <mxCell id="Ohhv1TDi-_pLUf5j1PH2-50" style="edgeStyle=orthogonalEdgeStyle;rounded=0;orthogonalLoop=1;jettySize=auto;html=1;startArrow=classic;startFill=1;endArrow=classic;endFill=1;entryX=0.5;entryY=1;entryDx=0;entryDy=0;" parent="1" source="Ohhv1TDi-_pLUf5j1PH2-5" target="Ohhv1TDi-_pLUf5j1PH2-8" edge="1">
                    <mxGeometry relative="1" as="geometry">
                        <mxPoint x="393" y="327.9999999999999" as="targetPoint"/>
                    </mxGeometry>
                </mxCell>
                <mxCell id="Ohhv1TDi-_pLUf5j1PH2-51" style="edgeStyle=orthogonalEdgeStyle;rounded=0;orthogonalLoop=1;jettySize=auto;html=1;startArrow=classic;startFill=1;endArrow=classic;endFill=1;" parent="1" source="Ohhv1TDi-_pLUf5j1PH2-5" edge="1">
                    <mxGeometry relative="1" as="geometry">
                        <mxPoint x="393" y="348" as="targetPoint"/>
                        <Array as="points">
                            <mxPoint x="393" y="348"/>
                        </Array>
                    </mxGeometry>
                </mxCell>
                <mxCell id="Ohhv1TDi-_pLUf5j1PH2-53" value="" style="group" parent="1" vertex="1" connectable="0">
                    <mxGeometry x="520" y="311" width="65" height="80" as="geometry"/>
                </mxCell>
                <mxCell id="Ohhv1TDi-_pLUf5j1PH2-54" value="" style="sketch=0;html=1;dashed=0;whitespace=wrap;fillColor=#2875E2;strokeColor=#ffffff;points=[[0.005,0.63,0],[0.1,0.2,0],[0.9,0.2,0],[0.5,0,0],[0.995,0.63,0],[0.72,0.99,0],[0.5,1,0],[0.28,0.99,0]];shape=mxgraph.kubernetes.icon;prIcon=pod" parent="Ohhv1TDi-_pLUf5j1PH2-53" vertex="1">
                    <mxGeometry x="-13" y="-8" width="70" height="62" as="geometry"/>
                </mxCell>
                <mxCell id="Ohhv1TDi-_pLUf5j1PH2-55" value="" style="sketch=0;html=1;dashed=0;whitespace=wrap;fillColor=#2875E2;strokeColor=#ffffff;points=[[0.005,0.63,0],[0.1,0.2,0],[0.9,0.2,0],[0.5,0,0],[0.995,0.63,0],[0.72,0.99,0],[0.5,1,0],[0.28,0.99,0]];shape=mxgraph.kubernetes.icon;prIcon=pod" parent="Ohhv1TDi-_pLUf5j1PH2-53" vertex="1">
                    <mxGeometry width="60" height="60" as="geometry"/>
                </mxCell>
                <mxCell id="Ohhv1TDi-_pLUf5j1PH2-56" value="Consumers" style="text;html=1;strokeColor=none;fillColor=none;align=center;verticalAlign=middle;whiteSpace=wrap;rounded=0;" parent="Ohhv1TDi-_pLUf5j1PH2-53" vertex="1">
                    <mxGeometry y="60" width="60" height="20" as="geometry"/>
                </mxCell>
                <mxCell id="Ohhv1TDi-_pLUf5j1PH2-57" style="edgeStyle=orthogonalEdgeStyle;rounded=0;orthogonalLoop=1;jettySize=auto;html=1;entryX=0.005;entryY=0.63;entryDx=0;entryDy=0;entryPerimeter=0;startArrow=classic;startFill=1;endArrow=none;endFill=0;endSize=6;" parent="1" source="Ohhv1TDi-_pLUf5j1PH2-19" target="Ohhv1TDi-_pLUf5j1PH2-54" edge="1">
                    <mxGeometry relative="1" as="geometry"/>
                </mxCell>
                <mxCell id="Ohhv1TDi-_pLUf5j1PH2-58" style="edgeStyle=orthogonalEdgeStyle;rounded=0;orthogonalLoop=1;jettySize=auto;html=1;startArrow=none;startFill=0;endArrow=classic;endFill=1;" parent="1" source="Ohhv1TDi-_pLUf5j1PH2-3" target="Ohhv1TDi-_pLUf5j1PH2-56" edge="1">
                    <mxGeometry relative="1" as="geometry"/>
                </mxCell>
                <mxCell id="Ohhv1TDi-_pLUf5j1PH2-59" style="edgeStyle=orthogonalEdgeStyle;rounded=0;orthogonalLoop=1;jettySize=auto;html=1;entryX=0;entryY=0.5;entryDx=0;entryDy=0;startArrow=none;startFill=0;endArrow=classic;endFill=1;" parent="1" source="Ohhv1TDi-_pLUf5j1PH2-12" target="Ohhv1TDi-_pLUf5j1PH2-3" edge="1">
                    <mxGeometry relative="1" as="geometry">
                        <Array as="points">
                            <mxPoint x="243" y="438"/>
                        </Array>
                    </mxGeometry>
                </mxCell>
                <mxCell id="Ohhv1TDi-_pLUf5j1PH2-60" style="edgeStyle=orthogonalEdgeStyle;rounded=0;orthogonalLoop=1;jettySize=auto;html=1;entryX=0;entryY=0.5;entryDx=0;entryDy=0;startArrow=none;startFill=0;endArrow=classic;endFill=1;" parent="1" target="Ohhv1TDi-_pLUf5j1PH2-2" edge="1">
                    <mxGeometry relative="1" as="geometry">
                        <mxPoint x="243" y="288" as="sourcePoint"/>
                        <Array as="points">
                            <mxPoint x="243" y="144"/>
                        </Array>
                    </mxGeometry>
                </mxCell>
                <mxCell id="Ohhv1TDi-_pLUf5j1PH2-63" style="edgeStyle=orthogonalEdgeStyle;rounded=0;orthogonalLoop=1;jettySize=auto;html=1;entryX=0.005;entryY=0.63;entryDx=0;entryDy=0;entryPerimeter=0;startArrow=none;startFill=0;endArrow=none;endFill=0;endSize=6;" parent="1" source="Ohhv1TDi-_pLUf5j1PH2-5" target="Ohhv1TDi-_pLUf5j1PH2-28" edge="1">
                    <mxGeometry relative="1" as="geometry">
                        <Array as="points">
                            <mxPoint x="373" y="328"/>
                            <mxPoint x="373" y="236"/>
                        </Array>
                    </mxGeometry>
                </mxCell>
                <mxCell id="Ohhv1TDi-_pLUf5j1PH2-65" value="" style="shape=image;verticalLabelPosition=bottom;labelBackgroundColor=#ffffff;verticalAlign=top;aspect=fixed;imageAspect=0;image=https://seeklogo.com/images/K/kubernetes-logo-3A67038EAB-seeklogo.com.png;" parent="1" vertex="1">
                    <mxGeometry x="151" y="97" width="23" height="22.38" as="geometry"/>
                </mxCell>
                <mxCell id="Ohhv1TDi-_pLUf5j1PH2-66" style="edgeStyle=orthogonalEdgeStyle;rounded=0;orthogonalLoop=1;jettySize=auto;html=1;startArrow=none;startFill=0;endArrow=classic;endFill=1;endSize=6;entryX=1.024;entryY=0.49;entryDx=0;entryDy=0;entryPerimeter=0;" parent="1" target="Ohhv1TDi-_pLUf5j1PH2-29" edge="1">
                    <mxGeometry relative="1" as="geometry">
                        <mxPoint x="510" y="235" as="sourcePoint"/>
                        <mxPoint x="470" y="232" as="targetPoint"/>
                    </mxGeometry>
                </mxCell>
                <mxCell id="Ohhv1TDi-_pLUf5j1PH2-67" value="" style="sketch=0;html=1;dashed=0;whitespace=wrap;fillColor=#2875E2;strokeColor=#ffffff;points=[[0.005,0.63,0],[0.1,0.2,0],[0.9,0.2,0],[0.5,0,0],[0.995,0.63,0],[0.72,0.99,0],[0.5,1,0],[0.28,0.99,0]];shape=mxgraph.kubernetes.icon;prIcon=pod" parent="1" vertex="1">
                    <mxGeometry x="163" y="178" width="50" height="48" as="geometry"/>
                </mxCell>
                <mxCell id="Ohhv1TDi-_pLUf5j1PH2-68" value="" style="sketch=0;html=1;dashed=0;whitespace=wrap;fillColor=#2875E2;strokeColor=#ffffff;points=[[0.005,0.63,0],[0.1,0.2,0],[0.9,0.2,0],[0.5,0,0],[0.995,0.63,0],[0.72,0.99,0],[0.5,1,0],[0.28,0.99,0]];shape=mxgraph.kubernetes.icon;prIcon=pod" parent="1" vertex="1">
                    <mxGeometry x="170" y="185" width="50" height="48" as="geometry"/>
                </mxCell>
                <mxCell id="Ohhv1TDi-_pLUf5j1PH2-70" style="edgeStyle=orthogonalEdgeStyle;rounded=0;orthogonalLoop=1;jettySize=auto;html=1;entryX=0.005;entryY=0.63;entryDx=0;entryDy=0;entryPerimeter=0;startArrow=none;startFill=0;endArrow=classic;endFill=1;endSize=6;" parent="1" source="Ohhv1TDi-_pLUf5j1PH2-69" target="Ohhv1TDi-_pLUf5j1PH2-40" edge="1">
                    <mxGeometry relative="1" as="geometry">
                        <Array as="points">
                            <mxPoint x="190" y="329"/>
                        </Array>
                    </mxGeometry>
                </mxCell>
                <mxCell id="Ohhv1TDi-_pLUf5j1PH2-69" value="Frontend" style="text;html=1;strokeColor=none;fillColor=none;align=center;verticalAlign=middle;whiteSpace=wrap;rounded=0;" parent="1" vertex="1">
                    <mxGeometry x="165" y="233" width="60" height="17" as="geometry"/>
                </mxCell>
            </root>
        </mxGraphModel>
    </diagram>
</mxfile>